<svg width="22" height="19" viewBox="0 0 22 19" fill="none" xmlns="http://www.w3.org/2000/svg">
<path fill-rule="evenodd" clip-rule="evenodd" d="M1.75928 0.604004H2.84261L2.89678 0.614837C4.39845 0.643966 5.71056 1.63679 6.14678 3.074L6.36344 3.8215H17.6626C18.6604 3.82605 19.6078 4.26029 20.2626 5.01317C20.9155 5.77083 21.2045 6.77613 21.0534 7.76484L20.4034 12.2498C20.187 13.969 18.7344 15.2643 17.0018 15.2832H10.6318C9.11002 15.2775 7.76986 14.2801 7.32761 12.824L4.58678 3.58317C4.3769 2.79037 3.6627 2.23586 2.84261 2.229H1.75928C1.31055 2.229 0.946777 1.86524 0.946777 1.4165C0.946777 0.967773 1.31055 0.604004 1.75928 0.604004ZM8.88761 12.304C9.11758 13.0753 9.82689 13.604 10.6318 13.604H17.0018C17.8984 13.5943 18.6577 12.9402 18.8001 12.0548L19.4501 7.559C19.5386 7.03568 19.3943 6.49979 19.0549 6.09171C18.7156 5.68364 18.215 5.44403 17.6843 5.43567H6.85094L8.88761 12.304Z" fill="#FDFDFD"/>
<path d="M10.3826 16.5832C9.7843 16.5832 9.29928 17.0682 9.29928 17.6665C9.29928 18.2648 9.7843 18.7498 10.3826 18.7498C10.9809 18.7498 11.4659 18.2648 11.4659 17.6665C11.4659 17.0682 10.9809 16.5832 10.3826 16.5832Z" fill="#FDFDFD"/>
<path d="M16.8826 16.5832C16.2843 16.5832 15.7993 17.0682 15.7993 17.6665C15.7993 18.2648 16.2843 18.7498 16.8826 18.7498C17.4809 18.7498 17.9659 18.2648 17.9659 17.6665C17.9659 17.0682 17.4809 16.5832 16.8826 16.5832Z" fill="#FDFDFD"/>
</svg>
