<svg width="151" height="93" viewBox="0 0 151 93" fill="none" xmlns="http://www.w3.org/2000/svg">
<path d="M1.632 46.688C3.168 37.8133 6.41067 29.92 11.36 23.008C16.3093 16.0107 22.5387 10.592 30.048 6.752C37.5573 2.82667 45.7493 0.863998 54.624 0.863998C62.048 0.863998 68.5333 2.22933 74.08 4.96C79.6267 7.69067 83.936 11.5733 87.008 16.608C90.08 21.6427 91.744 27.5733 92 34.4H64.992C63.968 31.072 62.176 28.512 59.616 26.72C57.056 24.928 53.8987 24.032 50.144 24.032C44.3413 24.032 39.3493 26.08 35.168 30.176C30.9867 34.272 28.2987 39.776 27.104 46.688C26.7627 48.48 26.592 50.4 26.592 52.448C26.592 57.7387 27.9573 61.92 30.688 64.992C33.504 67.9787 37.344 69.472 42.208 69.472C45.9627 69.472 49.4187 68.576 52.576 66.784C55.8187 64.992 58.5067 62.432 60.64 59.104H87.776C83.68 69.4293 77.2373 77.6213 68.448 83.68C59.6587 89.6533 49.632 92.64 38.368 92.64C30.6027 92.64 23.8613 91.1467 18.144 88.16C12.512 85.1733 8.20267 80.9493 5.216 75.488C2.22933 70.0267 0.736 63.712 0.736 56.544C0.736 53.216 1.03467 49.9307 1.632 46.688Z" fill="#F47820"/>
<path d="M122.312 72.928H150.344L146.888 92H93.64L109.64 1.75999H134.728L122.312 72.928Z" fill="#006838"/>
</svg>
