<svg width="117" height="140" viewBox="0 0 117 140" fill="none" xmlns="http://www.w3.org/2000/svg">
<g filter="url(#filter0_d_0_203)">
<rect width="88" height="116" rx="10" transform="matrix(-0.972827 -0.231535 -0.231535 0.972827 114.467 20.375)" fill="black"/>
</g>
<path fill-rule="evenodd" clip-rule="evenodd" d="M82.85 57.7499L80.225 55.1249C78.9741 53.8599 77.2787 53.1333 75.5 53.0999H65.5V51.6499C65.5 47.8529 62.422 44.7749 58.625 44.7749H38C36.9645 44.7749 36.125 45.6144 36.125 46.6499C36.125 47.6854 36.9645 48.5249 38 48.5249H58.55C60.2759 48.5249 61.675 49.924 61.675 51.6499V67.4749C61.675 68.5104 62.5145 69.3499 63.55 69.3499C64.5855 69.3499 65.425 68.5104 65.425 67.4749V56.8499H75.425C76.2535 56.8466 77.0477 57.1805 77.625 57.7749L80.25 60.2749C80.608 60.6461 80.866 61.1019 81 61.5999H70.5C69.4645 61.5999 68.625 62.4394 68.625 63.4749C68.625 64.5104 69.4645 65.3499 70.5 65.3499H81.125V75.9749C81.159 76.8251 80.8449 77.6525 80.2551 78.2659C79.6653 78.8792 78.8509 79.2256 78 79.2249H75.225C74.6098 76.3405 72.0618 74.2787 69.1125 74.2787C66.1632 74.2787 63.6152 76.3405 63 79.2249H49.65C48.9771 76.2434 46.2318 74.1971 43.1823 74.4041C40.1329 74.611 37.6892 77.0094 37.4253 80.0545C37.1614 83.0996 39.156 85.8827 42.1244 86.6111C45.0928 87.3396 48.1492 85.7962 49.325 82.9749H63.35C64.3245 85.2954 66.5957 86.805 69.1125 86.805C71.6293 86.805 73.9005 85.2954 74.875 82.9749H78C81.797 82.9749 84.875 79.8969 84.875 76.0999V62.6249C84.8784 60.7946 84.1492 59.0391 82.85 57.7499ZM43.55 82.5749C42.7107 82.6158 41.9314 82.1404 41.5838 81.3754C41.2361 80.6104 41.3906 79.7107 41.9735 79.1054C42.5563 78.5001 43.4496 78.3118 44.2272 78.6303C45.0048 78.9488 45.5092 79.7096 45.5 80.5499C45.5007 81.6396 44.639 82.5345 43.55 82.5749ZM67.2038 81.3035C67.5196 82.0726 68.2686 82.5748 69.1 82.5749C70.2225 82.575 71.1363 81.6723 71.15 80.5499C71.1601 79.7186 70.6672 78.9634 69.902 78.6382C69.1368 78.313 68.251 78.4822 67.6595 79.0665C67.068 79.6507 66.888 80.5344 67.2038 81.3035Z" fill="#F47820"/>
<path d="M54.875 58.8749C54.8615 57.845 54.0299 57.0134 53 56.9999H33C31.9645 56.9999 31.125 57.8394 31.125 58.8749C31.125 59.9104 31.9645 60.7499 33 60.7499H53C54.0299 60.7364 54.8615 59.9048 54.875 58.8749Z" fill="#F47820"/>
<path d="M53 64.4999H40.5C39.4645 64.4999 38.625 65.3394 38.625 66.3749C38.625 67.4104 39.4645 68.2499 40.5 68.2499H53C54.0355 68.2499 54.875 67.4104 54.875 66.3749C54.875 65.3394 54.0355 64.4999 53 64.4999Z" fill="#F47820"/>
<defs>
<filter id="filter0_d_0_203" x="0.0412598" y="2.0415" width="116.384" height="137.14" filterUnits="userSpaceOnUse" color-interpolation-filters="sRGB">
<feFlood flood-opacity="0" result="BackgroundImageFix"/>
<feColorMatrix in="SourceAlpha" type="matrix" values="0 0 0 0 0 0 0 0 0 0 0 0 0 0 0 0 0 0 127 0" result="hardAlpha"/>
<feOffset dy="4"/>
<feGaussianBlur stdDeviation="2"/>
<feComposite in2="hardAlpha" operator="out"/>
<feColorMatrix type="matrix" values="0 0 0 0 0 0 0 0 0 0 0 0 0 0 0 0 0 0 0.05 0"/>
<feBlend mode="normal" in2="BackgroundImageFix" result="effect1_dropShadow_0_203"/>
<feBlend mode="normal" in="SourceGraphic" in2="effect1_dropShadow_0_203" result="shape"/>
</filter>
</defs>
</svg>
