<svg width="117" height="140" viewBox="0 0 117 140" fill="none" xmlns="http://www.w3.org/2000/svg">
<g filter="url(#filter0_d_0_189)">
<rect x="2" y="20.375" width="88" height="116" rx="10" transform="rotate(-13.3875 2 20.375)" fill="white"/>
</g>
<path d="M65.0017 59.7252L50.5767 74.1502C49.8455 74.8823 49.8455 76.0682 50.5767 76.8002C50.9264 77.1543 51.404 77.3526 51.9017 77.3502C52.3999 77.3555 52.8786 77.1568 53.2267 76.8002L67.6517 62.3752C68.1533 61.9078 68.3598 61.2039 68.1901 60.5395C68.0205 59.8752 67.5017 59.3564 66.8374 59.1868C66.1731 59.0171 65.4691 59.2236 65.0017 59.7252Z" fill="#F47820"/>
<circle cx="52.627" cy="62.625" r="1.875" fill="#F47820"/>
<circle cx="65.8269" cy="73.8999" r="1.875" fill="#F47820"/>
<path fill-rule="evenodd" clip-rule="evenodd" d="M84.5988 57.9285C85.4245 60.0664 84.8832 62.4911 83.2266 64.0748C82.0274 65.1467 81.3419 66.6789 81.3419 68.2873C81.3419 69.8957 82.0274 71.4279 83.2266 72.4998C84.9565 74.0716 85.5458 76.5432 84.7112 78.7264C83.8766 80.9096 81.7888 82.3578 79.4516 82.3748H78.8266C77.2747 82.3866 75.7947 83.0307 74.7284 84.1584C73.6621 85.286 73.1017 86.7997 73.1766 88.3498C73.2596 89.9083 72.6942 91.4317 71.6146 92.5586C70.5349 93.6856 69.0372 94.3158 67.4766 94.2998C65.8881 94.3005 64.3761 93.6174 63.3266 92.4248C62.2506 91.2328 60.72 90.5525 59.1141 90.5525C57.5083 90.5525 55.9777 91.2328 54.9016 92.4248C53.8522 93.6174 52.3402 94.3005 50.7516 94.2998C49.1818 94.3167 47.6758 93.6798 46.5945 92.5416C45.5133 91.4034 44.9543 89.8667 45.0516 88.2998C45.1196 86.7539 44.556 85.2468 43.4905 84.1247C42.425 83.0026 40.949 82.3619 39.4016 82.3498H38.7766C36.5408 82.2437 34.5761 80.8332 33.7607 78.7487C32.9452 76.6641 33.4313 74.2949 35.0016 72.6998C36.1924 71.6283 36.8724 70.1017 36.8724 68.4998C36.8724 66.8979 36.1924 65.3713 35.0016 64.2998C33.1734 62.7475 32.5185 60.2134 33.3655 57.9697C34.2125 55.7259 36.3787 54.2568 38.7766 54.2998H39.4016C40.9697 54.2963 42.4664 53.6442 43.5366 52.4982C44.6069 51.3522 45.1553 49.8144 45.0516 48.2498C44.997 46.7083 45.5749 45.2114 46.6514 44.1066C47.7278 43.0018 49.2092 42.3852 50.7516 42.3998C52.3463 42.3955 53.8629 43.0898 54.9016 44.2998C55.9883 45.4816 57.5212 46.1528 59.1266 46.1498C60.7234 46.1458 62.2459 45.4752 63.3266 44.2998C64.3607 43.0805 65.8779 42.3767 67.4766 42.3748C69.0418 42.3584 70.5437 42.992 71.6241 44.1245C72.7046 45.2571 73.2668 46.7872 73.1766 48.3498C73.1015 49.8977 73.6627 51.4089 74.7297 52.5326C75.7968 53.6563 77.277 54.2948 78.8266 54.2998H79.4516C81.7427 54.3591 83.7732 55.7906 84.5988 57.9285ZM80.4766 77.0748C80.6828 76.6394 80.558 76.1192 80.1766 75.8248V75.6748C78.0815 73.7437 76.8897 71.0242 76.8897 68.1748C76.8897 65.3255 78.0815 62.606 80.1766 60.6748C80.558 60.3804 80.6828 59.8602 80.4766 59.4248C80.333 58.983 79.9161 58.6881 79.4516 58.6998H78.8266C76.0376 58.6943 73.3725 57.5469 71.4516 55.5248C69.5476 53.5031 68.5383 50.7996 68.6516 48.0248C68.6936 47.7264 68.6022 47.4247 68.4016 47.1998C68.1596 46.9475 67.8262 46.8034 67.4766 46.7998C67.1203 46.7668 66.7717 46.9176 66.5516 47.1998C64.6316 49.3183 61.9107 50.5336 59.0516 50.5498C56.1933 50.5306 53.4735 49.3157 51.5516 47.1998C51.3579 46.9539 51.0646 46.8072 50.7516 46.7998C50.4021 46.8034 50.0686 46.9475 49.8266 47.1998C49.6261 47.4247 49.5347 47.7264 49.5766 48.0248C49.7418 50.8281 48.744 53.5754 46.8184 55.6193C44.8928 57.6632 42.2097 58.8228 39.4016 58.8248H38.8516C38.3625 58.7872 37.9099 59.0855 37.7516 59.5498C37.5455 59.9852 37.6703 60.5054 38.0516 60.7998C40.165 62.7235 41.3793 65.4421 41.4016 68.2998C41.3854 71.1588 40.1701 73.8798 38.0516 75.7998C37.6703 76.0942 37.5455 76.6144 37.7516 77.0498C37.8786 77.5069 38.3026 77.8171 38.7766 77.7998H39.4016C42.1891 77.8104 44.8514 78.9586 46.7723 80.9786C48.6932 82.9986 49.7061 85.7153 49.5766 88.4998C49.5315 88.7908 49.6238 89.0863 49.8266 89.2998C50.0967 89.5691 50.4715 89.7062 50.8516 89.6748C51.159 89.6671 51.4491 89.5311 51.6516 89.2998C53.5771 87.1489 56.3273 85.9197 59.2141 85.9197C62.1009 85.9197 64.8512 87.1489 66.7766 89.2998C66.9509 89.5169 67.2011 89.6599 67.4766 89.6998C67.8262 89.6963 68.1596 89.5521 68.4016 89.2998C68.6045 89.0863 68.6968 88.7908 68.6516 88.4998C68.5496 85.7268 69.5573 83.0275 71.4516 80.9998C73.3792 78.9874 76.04 77.8419 78.8266 77.8248H79.3766C79.8752 77.8689 80.3356 77.555 80.4766 77.0748Z" fill="#F47820"/>
<defs>
<filter id="filter0_d_0_189" x="0.0415039" y="2.0415" width="116.384" height="137.14" filterUnits="userSpaceOnUse" color-interpolation-filters="sRGB">
<feFlood flood-opacity="0" result="BackgroundImageFix"/>
<feColorMatrix in="SourceAlpha" type="matrix" values="0 0 0 0 0 0 0 0 0 0 0 0 0 0 0 0 0 0 127 0" result="hardAlpha"/>
<feOffset dy="4"/>
<feGaussianBlur stdDeviation="2"/>
<feComposite in2="hardAlpha" operator="out"/>
<feColorMatrix type="matrix" values="0 0 0 0 0 0 0 0 0 0 0 0 0 0 0 0 0 0 0.05 0"/>
<feBlend mode="normal" in2="BackgroundImageFix" result="effect1_dropShadow_0_189"/>
<feBlend mode="normal" in="SourceGraphic" in2="effect1_dropShadow_0_189" result="shape"/>
</filter>
</defs>
</svg>
