<svg width="14" height="18" viewBox="0 0 14 18" fill="none" xmlns="http://www.w3.org/2000/svg">
<path fill-rule="evenodd" clip-rule="evenodd" d="M13.3166 12.9249L13.5166 13.8749C13.7061 14.6962 13.519 15.5592 13.0063 16.2283C12.4936 16.8974 11.7089 17.3026 10.8666 17.3332H3.13325C2.2909 17.3026 1.50622 16.8974 0.993538 16.2283C0.480854 15.5592 0.293721 14.6962 0.483249 13.8749L0.683249 12.9249C0.913278 11.6388 2.01877 10.6938 3.32492 10.6665H10.6749C11.9811 10.6938 13.0866 11.6388 13.3166 12.9249ZM10.8666 16.0749C11.2897 16.07 11.688 15.8739 11.9499 15.5415V15.5499C12.2713 15.1467 12.3965 14.6213 12.2916 14.1165L12.0916 13.1665C11.9806 12.4625 11.3871 11.9353 10.6749 11.9082H3.32492C2.61272 11.9353 2.01922 12.4625 1.90825 13.1665L1.70825 14.1165C1.60588 14.6187 1.73097 15.1404 2.04992 15.5415C2.31186 15.8739 2.71009 16.07 3.13325 16.0749H10.8666Z" fill="white"/>
<path fill-rule="evenodd" clip-rule="evenodd" d="M7.41657 8.99985H6.58324C4.74229 8.99985 3.2499 7.50747 3.2499 5.66652V3.46652C3.24768 2.72323 3.54197 2.00975 4.06755 1.48416C4.59314 0.95858 5.30662 0.664294 6.0499 0.666516H7.9499C8.69319 0.664294 9.40667 0.95858 9.93226 1.48416C10.4578 2.00975 10.7521 2.72323 10.7499 3.46652V5.66652C10.7499 7.50747 9.25752 8.99985 7.41657 8.99985ZM6.0499 1.91652C5.19386 1.91652 4.4999 2.61048 4.4999 3.46652V5.66652C4.4999 6.81711 5.43264 7.74985 6.58324 7.74985H7.41657C8.56716 7.74985 9.4999 6.81711 9.4999 5.66652V3.46652C9.4999 3.05543 9.3366 2.66118 9.04592 2.3705C8.75524 2.07982 8.36099 1.91652 7.9499 1.91652H6.0499Z" fill="white"/>
</svg>
