<svg width="1512" height="1634" viewBox="0 0 1512 1634" fill="none" xmlns="http://www.w3.org/2000/svg">
<rect y="633.437" width="1512" height="1000.56" fill="#F47820"/>
<path d="M1512 0H0V805.473C182.641 675.483 205.364 1006.01 652.568 663.19C826.953 529.512 879.418 912.424 1180.22 745.313C1481.02 578.203 1512 813.173 1512 805.473V0Z" fill="#EEEEEE"/>
<g style="mix-blend-mode:color-burn">
<path fill-rule="evenodd" clip-rule="evenodd" d="M1000.49 266.093C821.633 499.968 997.363 528.619 1112.27 513.71L1211.29 507.761C1215.34 673.991 1200.78 875.877 1126.44 918.549C1002.99 989.413 1255.89 1076.74 1328.76 981.539C1401.63 886.338 1430.78 719.556 1357.91 587.849C1341.15 557.564 1323.48 528.644 1306.14 502.063L1306.48 502.042L1466.98 513.71C1743.25 513.71 1611.23 348.632 1510.69 266.093C1415.15 168.645 1179.34 32.2187 1000.49 266.093ZM1072.42 361.619C1060.41 380.048 1037.16 388.457 1020.48 380.402C1003.8 372.346 1000.02 350.876 1012.02 332.448C1024.03 314.019 1047.29 305.61 1063.96 313.665C1080.64 321.721 1084.43 343.19 1072.42 361.619ZM1125.1 239.42C1145.49 239.42 1162.01 229.839 1162.01 218.02C1162.01 206.201 1145.49 196.62 1125.1 196.62C1104.72 196.62 1088.2 206.201 1088.2 218.02C1088.2 229.839 1104.72 239.42 1125.1 239.42ZM1371.4 247.201C1371.4 262.959 1360.6 275.734 1347.29 275.734C1333.98 275.734 1323.19 262.959 1323.19 247.201C1323.19 231.443 1333.98 218.668 1347.29 218.668C1360.6 218.668 1371.4 231.443 1371.4 247.201ZM1177.83 305.565C1186.56 305.565 1193.64 298.887 1193.64 290.65C1193.64 282.412 1186.56 275.735 1177.83 275.735C1169.09 275.735 1162.01 282.412 1162.01 290.65C1162.01 298.887 1169.09 305.565 1177.83 305.565ZM1372.9 370.412C1372.9 390.469 1346.6 406.727 1314.15 406.727C1281.71 406.727 1255.4 390.469 1255.4 370.412C1255.4 350.356 1281.71 334.097 1314.15 334.097C1346.6 334.097 1372.9 350.356 1372.9 370.412ZM1044.51 487.139C1074.46 487.139 1098.74 471.461 1098.74 452.121C1098.74 432.781 1074.46 417.103 1044.51 417.103C1014.56 417.103 990.281 432.781 990.281 452.121C990.281 471.461 1014.56 487.139 1044.51 487.139ZM1540.11 443.042C1540.11 463.098 1518.19 479.357 1491.15 479.357C1464.11 479.357 1442.2 463.098 1442.2 443.042C1442.2 422.986 1464.11 406.727 1491.15 406.727C1518.19 406.727 1540.11 422.986 1540.11 443.042Z" fill="#969696"/>
</g>
<g style="mix-blend-mode:color-burn">
<path fill-rule="evenodd" clip-rule="evenodd" d="M606.362 481.661C509.643 608.134 604.673 623.627 666.811 615.565L720.361 612.348C722.548 702.241 714.673 811.415 674.474 834.491C607.716 872.812 744.478 920.037 783.883 868.554C823.289 817.072 839.052 726.881 799.646 655.657C790.585 639.28 781.026 623.641 771.652 609.267L771.837 609.256L858.627 615.565C1008.03 615.565 936.637 526.296 882.267 481.661C830.598 428.964 703.08 355.188 606.362 481.661ZM645.26 533.319C638.767 543.285 626.192 547.832 617.173 543.476C608.154 539.12 606.107 527.509 612.6 517.544C619.094 507.578 631.669 503.03 640.688 507.387C649.707 511.743 651.754 523.353 645.26 533.319ZM673.75 467.237C684.773 467.237 693.708 462.056 693.708 455.664C693.708 449.273 684.773 444.092 673.75 444.092C662.728 444.092 653.792 449.273 653.792 455.664C653.792 462.056 662.728 467.237 673.75 467.237ZM806.939 471.444C806.939 479.966 801.104 486.874 793.906 486.874C786.707 486.874 780.872 479.966 780.872 471.444C780.872 462.923 786.707 456.015 793.906 456.015C801.104 456.015 806.939 462.923 806.939 471.444ZM702.262 503.006C706.986 503.006 710.815 499.395 710.815 494.94C710.815 490.486 706.986 486.875 702.262 486.875C697.538 486.875 693.708 490.486 693.708 494.94C693.708 499.395 697.538 503.006 702.262 503.006ZM807.754 538.074C807.754 548.92 793.53 557.712 775.984 557.712C758.438 557.712 744.214 548.92 744.214 538.074C744.214 527.228 758.438 518.436 775.984 518.436C793.53 518.436 807.754 527.228 807.754 538.074ZM630.169 601.196C646.365 601.196 659.495 592.718 659.495 582.26C659.495 571.801 646.365 563.323 630.169 563.323C613.972 563.323 600.843 571.801 600.843 582.26C600.843 592.718 613.972 601.196 630.169 601.196ZM898.176 577.35C898.176 588.196 886.323 596.988 871.701 596.988C857.079 596.988 845.226 588.196 845.226 577.35C845.226 566.504 857.079 557.712 871.701 557.712C886.323 557.712 898.176 566.504 898.176 577.35Z" fill="#969696"/>
</g>
<g style="mix-blend-mode:color-burn">
<path fill-rule="evenodd" clip-rule="evenodd" d="M446.836 348.016C559.225 502.883 448.798 521.855 376.593 511.983L314.367 508.043C311.825 618.118 320.976 751.803 367.687 780.059C445.261 826.984 286.342 884.811 240.552 821.77C194.762 758.73 176.446 648.29 222.236 561.076C232.765 541.022 243.872 521.871 254.765 504.27L254.55 504.256L153.698 511.983C-19.9086 511.983 63.049 402.671 126.229 348.016C186.269 283.488 334.447 193.148 446.836 348.016ZM401.635 411.271C409.18 423.474 423.793 429.042 434.273 423.708C444.753 418.374 447.132 404.157 439.586 391.954C432.041 379.751 417.428 374.182 406.948 379.517C396.468 384.851 394.089 399.068 401.635 411.271ZM368.528 330.352C355.72 330.352 345.337 324.008 345.337 316.182C345.337 308.356 355.72 302.011 368.528 302.011C381.337 302.011 391.72 308.356 391.72 316.182C391.72 324.008 381.337 330.352 368.528 330.352ZM213.761 335.505C213.761 345.94 220.541 354.399 228.906 354.399C237.271 354.399 244.052 345.94 244.052 335.505C244.052 325.07 237.271 316.611 228.906 316.611C220.541 316.611 213.761 325.07 213.761 335.505ZM335.398 374.152C329.908 374.152 325.458 369.73 325.458 364.276C325.458 358.821 329.908 354.399 335.398 354.399C340.887 354.399 345.337 358.821 345.337 364.276C345.337 369.73 340.887 374.152 335.398 374.152ZM212.814 417.094C212.814 430.374 229.342 441.141 249.731 441.141C270.12 441.141 286.648 430.374 286.648 417.094C286.648 403.813 270.12 393.046 249.731 393.046C229.342 393.046 212.814 403.813 212.814 417.094ZM419.171 494.388C400.351 494.388 385.094 484.006 385.094 471.199C385.094 458.393 400.351 448.011 419.171 448.011C437.992 448.011 453.249 458.393 453.249 471.199C453.249 484.006 437.992 494.388 419.171 494.388ZM107.742 465.188C107.742 478.468 121.516 489.235 138.506 489.235C155.497 489.235 169.271 478.468 169.271 465.188C169.271 451.907 155.497 441.141 138.506 441.141C121.516 441.141 107.742 451.907 107.742 465.188Z" fill="#969696"/>
</g>
</svg>
